<svg width="25" height="24" viewBox="0 0 25 24" fill="none" xmlns="http://www.w3.org/2000/svg">
<g id="location_on">
<mask id="mask0_92_890" style="mask-type:alpha" maskUnits="userSpaceOnUse" x="0" y="0" width="25" height="24">
<rect id="Bounding box" x="0.163086" width="24" height="24" fill="#D9D9D9"/>
</mask>
<g mask="url(#mask0_92_890)">
<path id="location_on_2" d="M12.1631 12C12.7131 12 13.1839 11.8042 13.5756 11.4125C13.9673 11.0208 14.1631 10.55 14.1631 10C14.1631 9.45 13.9673 8.97917 13.5756 8.5875C13.1839 8.19583 12.7131 8 12.1631 8C11.6131 8 11.1423 8.19583 10.7506 8.5875C10.3589 8.97917 10.1631 9.45 10.1631 10C10.1631 10.55 10.3589 11.0208 10.7506 11.4125C11.1423 11.8042 11.6131 12 12.1631 12ZM12.1631 19.35C14.1964 17.4833 15.7048 15.7875 16.6881 14.2625C17.6714 12.7375 18.1631 11.3833 18.1631 10.2C18.1631 8.38333 17.5839 6.89583 16.4256 5.7375C15.2673 4.57917 13.8464 4 12.1631 4C10.4798 4 9.05892 4.57917 7.90059 5.7375C6.74225 6.89583 6.16309 8.38333 6.16309 10.2C6.16309 11.3833 6.65475 12.7375 7.63809 14.2625C8.62142 15.7875 10.1298 17.4833 12.1631 19.35ZM12.1631 22C9.47975 19.7167 7.47559 17.5958 6.15059 15.6375C4.82559 13.6792 4.16309 11.8667 4.16309 10.2C4.16309 7.7 4.96725 5.70833 6.57559 4.225C8.18392 2.74167 10.0464 2 12.1631 2C14.2798 2 16.1423 2.74167 17.7506 4.225C19.3589 5.70833 20.1631 7.7 20.1631 10.2C20.1631 11.8667 19.5006 13.6792 18.1756 15.6375C16.8506 17.5958 14.8464 19.7167 12.1631 22Z" fill="#005CE5"/>
</g>
</g>
</svg>
