<svg width="197" height="196" viewBox="0 0 197 196" fill="none" xmlns="http://www.w3.org/2000/svg">
<g id="print">
<mask id="mask0_92_592" style="mask-type:alpha" maskUnits="userSpaceOnUse" x="0" y="0" width="197" height="196">
<rect id="Bounding box" x="0.163086" width="196" height="196" fill="#D9D9D9"/>
</mask>
<g mask="url(#mask0_92_592)">
<path id="print_2" d="M130.83 70.359V45.859H65.4963V70.359H57.3296V37.6924H138.996V70.359H130.83ZM144.022 98.9424C146.336 98.9424 148.275 98.1597 149.841 96.5945C151.406 95.0292 152.189 93.0896 152.189 90.7757C152.189 88.4618 151.406 86.5222 149.841 84.957C148.275 83.3917 146.336 82.609 144.022 82.609C141.708 82.609 139.768 83.3917 138.203 84.957C136.638 86.5222 135.855 88.4618 135.855 90.7757C135.855 93.0896 136.638 95.0292 138.203 96.5945C139.768 98.1597 141.708 98.9424 144.022 98.9424ZM130.83 155.167V118.103H65.4963V155.167H130.83ZM138.996 163.333H57.3296V130.667H29.3745V86.6924C29.3745 82.0646 30.945 78.1854 34.0861 75.0549C37.2271 71.9243 41.101 70.359 45.7078 70.359H150.618C155.246 70.359 159.125 71.9243 162.256 75.0549C165.386 78.1854 166.951 82.0646 166.951 86.6924V130.667H138.996V163.333ZM158.785 122.5V86.6924C158.785 84.3785 158.002 82.4389 156.437 80.8736C154.872 79.3083 152.932 78.5257 150.618 78.5257H45.7078C43.394 78.5257 41.4544 79.3083 39.8891 80.8736C38.3238 82.4389 37.5412 84.3785 37.5412 86.6924V122.5H57.3296V109.936H138.996V122.5H158.785Z" fill="white"/>
</g>
</g>
</svg>
