<svg width="101" height="100" viewBox="0 0 101 100" fill="none" xmlns="http://www.w3.org/2000/svg">
<g id="Frame 1321315935">
<rect x="0.163086" width="100" height="100" rx="20" fill="#005CE5"/>
<g id="print_add">
<mask id="mask0_92_603" style="mask-type:alpha" maskUnits="userSpaceOnUse" x="15" y="15" width="71" height="70">
<rect id="Bounding box" x="15.1631" y="15" width="70" height="70" fill="#D9D9D9"/>
</mask>
<g mask="url(#mask0_92_603)">
<path id="print_add_2" d="M68.5322 75.661V66.911H59.7822V62.5362H68.5322V53.7861H72.907V62.5362H81.657V66.911H72.907V75.661H68.5322ZM34.1211 74.7916V63.125H23.2959V46.5224C23.2959 44.4565 24.0017 42.7247 25.4133 41.3272C26.8248 39.9296 28.5495 39.2309 30.5874 39.2309H69.738C71.8039 39.2309 73.5357 39.9296 74.9332 41.3272C76.3307 42.7247 77.0295 44.4565 77.0295 46.5224V48.8838C76.3602 48.566 75.661 48.2856 74.9318 48.0425C74.2027 47.7994 73.4436 47.633 72.6547 47.5433V46.7019C72.6547 45.8755 72.3751 45.1529 71.8161 44.534C71.2571 43.9152 70.5644 43.6057 69.738 43.6057H30.5874C29.761 43.6057 29.0683 43.8853 28.5093 44.4443C27.9503 45.0033 27.6708 45.696 27.6708 46.5224V58.75H34.1211V53.5898H57.488C56.9159 54.2292 56.4083 54.9088 55.9652 55.6286C55.5221 56.3484 55.1435 57.1271 54.8294 57.9647H38.496V70.4167H54.3526C54.5994 71.2244 54.95 71.9881 55.4042 72.7079C55.8586 73.4277 56.3381 74.1223 56.843 74.7916H34.1211ZM61.8294 39.2309V30.4809H38.496V39.2309H34.1211V26.106H66.2043V39.2309H61.8294Z" fill="white"/>
</g>
</g>
</g>
</svg>
