<svg width="101" height="100" viewBox="0 0 101 100" fill="none" xmlns="http://www.w3.org/2000/svg">
<g id="Frame 1321315935">
<rect x="0.163086" width="100" height="100" rx="20" fill="#005CE5"/>
<g id="print_error">
<mask id="mask0_92_819" style="mask-type:alpha" maskUnits="userSpaceOnUse" x="15" y="15" width="71" height="70">
<rect id="Bounding box" x="15.1631" y="15" width="70" height="70" fill="#D9D9D9"/>
</mask>
<g mask="url(#mask0_92_819)">
<path id="print_error_2" d="M34.1211 74.7916V63.1249H23.2959V46.5224C23.2959 44.4565 24.0017 42.7247 25.4133 41.3272C26.8248 39.9296 28.5495 39.2309 30.5874 39.2309H69.738C71.2524 39.2309 72.6013 39.6375 73.7848 40.4508C74.9682 41.264 75.8236 42.3157 76.3508 43.6057H30.5874C29.761 43.6057 29.0683 43.8853 28.5093 44.4443C27.9503 45.0033 27.6708 45.696 27.6708 46.5224V58.75H34.1211V53.5898H61.9977V57.9647H38.496V70.4167H61.9977V74.7916H34.1211ZM34.1211 39.2309V26.106H66.2043V39.2309H61.8294V30.4809H38.496V39.2309H34.1211ZM70.5803 74.7916C69.8655 74.7916 69.2659 74.5498 68.7817 74.0662C68.2975 73.5827 68.0554 72.9834 68.0554 72.2686C68.0554 71.5537 68.2971 70.9541 68.7807 70.4699C69.2643 69.9857 69.8635 69.7436 70.5784 69.7436C71.2932 69.7436 71.8928 69.9854 72.3771 70.4689C72.8613 70.9525 73.1034 71.5517 73.1034 72.2666C73.1034 72.9815 72.8616 73.581 72.378 74.0652C71.8944 74.5495 71.2952 74.7916 70.5803 74.7916ZM68.3919 62.7884V49.6634H72.7668V62.7884H68.3919Z" fill="white"/>
</g>
</g>
</g>
</svg>
