<svg width="28" height="26" viewBox="0 0 28 26" fill="none" xmlns="http://www.w3.org/2000/svg">
<path fill-rule="evenodd" clip-rule="evenodd" d="M2.51919 11.1928C9.76694 7.52363 14.5999 5.10467 17.0181 3.93595C23.9225 0.599007 25.3572 0.0193449 26.2923 0.000204084C26.4979 -0.00400572 26.9578 0.0552205 27.2557 0.336076C27.5072 0.573225 27.5764 0.89358 27.6095 1.11842C27.6426 1.34327 27.6839 1.85547 27.6511 2.25568C27.2769 6.8237 25.658 17.9091 24.8343 23.0253C24.4858 25.1902 23.7996 25.9161 23.1353 25.9871C21.6915 26.1415 20.5952 24.8784 19.1968 23.8133C17.0086 22.1466 15.7724 21.1091 13.6484 19.4827C11.1938 17.6031 12.785 16.57 14.1839 14.8817C14.55 14.4399 20.9113 7.7166 21.0345 7.10669C21.0499 7.03041 21.0642 6.74607 20.9188 6.59594C20.7734 6.4458 20.5589 6.49714 20.404 6.53797C20.1846 6.59585 16.6889 9.28057 9.91715 14.5921C8.92493 15.3838 8.02621 15.7696 7.22098 15.7494C6.33328 15.7271 4.62571 15.1661 3.3563 14.6867C1.79933 14.0986 0.561872 13.7877 0.669627 12.7889C0.725752 12.2687 1.34227 11.7367 2.51919 11.1928Z" fill="white"/>
</svg>
