<svg width="35" height="22" viewBox="0 0 35 22" fill="none" xmlns="http://www.w3.org/2000/svg">
<path id="Vector" d="M18.9251 22C7.41755 22 0.43042 13.7358 0.163086 0H5.98367C6.16595 10.0629 10.6013 14.3774 14.0037 15.2453V0H19.5934V8.7044C22.8622 8.32704 26.301 4.37736 27.4554 0H32.9479C32.5199 2.24648 31.6523 4.37851 30.3984 6.26486C29.1445 8.1512 27.5309 9.75195 25.657 10.9686C27.7408 12.09 29.5743 13.6511 31.0394 15.5512C32.5045 17.4512 33.5686 19.6481 34.1631 22H28.0873C27.5786 19.9647 26.5015 18.1299 24.9907 16.7249C23.48 15.3199 21.6026 14.4071 19.5934 14.1006V21.9497L18.9251 22Z" fill="white"/>
</svg>
